<mxfile host="Electron" modified="2023-06-16T19:13:30.976Z" agent="Mozilla/5.0 (Macintosh; Intel Mac OS X 10_15_7) AppleWebKit/537.36 (KHTML, like Gecko) draw.io/21.4.0 Chrome/112.0.5615.204 Electron/24.5.1 Safari/537.36" etag="6UR7I70yhtqfXaYeZMfY" version="21.4.0" type="device">
  <diagram name="Page-1" id="ww0ckM_kCzDbM-tejvhV">
    <mxGraphModel dx="2090" dy="2023" grid="1" gridSize="10" guides="1" tooltips="1" connect="1" arrows="1" fold="1" page="1" pageScale="1" pageWidth="827" pageHeight="1169" math="0" shadow="0">
      <root>
        <mxCell id="0" />
        <mxCell id="1" parent="0" />
        <mxCell id="3I_h-lLgdBAn1cxyDvW6-1" value="" style="rounded=1;arcSize=10;dashed=1;fillColor=none;gradientColor=none;dashPattern=1 1;strokeWidth=2;" vertex="1" parent="1">
          <mxGeometry x="420" y="279" width="340" height="301" as="geometry" />
        </mxCell>
        <mxCell id="3I_h-lLgdBAn1cxyDvW6-83" value="" style="rounded=1;arcSize=10;dashed=1;dashPattern=1 1;strokeWidth=2;strokeColor=#FF00FF;" vertex="1" parent="1">
          <mxGeometry x="487.45454545454544" y="286" width="242.54545454545453" height="196" as="geometry" />
        </mxCell>
        <mxCell id="3I_h-lLgdBAn1cxyDvW6-66" value="" style="rounded=1;arcSize=10;dashed=1;fillColor=none;gradientColor=none;dashPattern=1 1;strokeWidth=2;" vertex="1" parent="1">
          <mxGeometry x="161" y="280" width="249" height="300" as="geometry" />
        </mxCell>
        <mxCell id="3I_h-lLgdBAn1cxyDvW6-70" style="edgeStyle=orthogonalEdgeStyle;rounded=0;orthogonalLoop=1;jettySize=auto;html=1;entryX=0.33;entryY=0;entryDx=0;entryDy=0;entryPerimeter=0;" edge="1" parent="1" source="3I_h-lLgdBAn1cxyDvW6-10" target="3I_h-lLgdBAn1cxyDvW6-11">
          <mxGeometry relative="1" as="geometry" />
        </mxCell>
        <mxCell id="3I_h-lLgdBAn1cxyDvW6-10" value="&lt;div style=&quot;border-color: var(--border-color); color: rgb(0, 0, 0); font-family: Helvetica; font-size: 12px; font-style: normal; font-variant-ligatures: normal; font-variant-caps: normal; font-weight: 400; letter-spacing: normal; orphans: 2; text-indent: 0px; text-transform: none; widows: 2; word-spacing: 0px; -webkit-text-stroke-width: 0px; background-color: rgb(251, 251, 251); text-decoration-thickness: initial; text-decoration-style: initial; text-decoration-color: initial; text-align: left;&quot;&gt;&lt;br&gt;&lt;/div&gt;" style="rounded=0;whiteSpace=wrap;html=1;" vertex="1" parent="1">
          <mxGeometry x="470" y="-40" width="170" height="290" as="geometry" />
        </mxCell>
        <mxCell id="3I_h-lLgdBAn1cxyDvW6-8" value="Contracts" style="text;html=1;strokeColor=none;fillColor=none;align=center;verticalAlign=middle;whiteSpace=wrap;rounded=0;" vertex="1" parent="1">
          <mxGeometry x="426" y="289" width="60" height="30" as="geometry" />
        </mxCell>
        <mxCell id="3I_h-lLgdBAn1cxyDvW6-9" value="" style="sketch=0;pointerEvents=1;shadow=0;dashed=0;html=1;strokeColor=none;fillColor=#505050;labelPosition=center;verticalLabelPosition=bottom;verticalAlign=top;outlineConnect=0;align=center;shape=mxgraph.office.sites.website_public;" vertex="1" parent="1">
          <mxGeometry x="450" y="-65" width="58" height="48" as="geometry" />
        </mxCell>
        <mxCell id="3I_h-lLgdBAn1cxyDvW6-24" value="" style="verticalLabelPosition=bottom;verticalAlign=top;html=1;shape=hexagon;perimeter=hexagonPerimeter2;arcSize=6;size=0.27;fillColor=#fad7ac;strokeColor=#b46504;" vertex="1" parent="1">
          <mxGeometry x="317" y="91" width="100" height="60" as="geometry" />
        </mxCell>
        <mxCell id="3I_h-lLgdBAn1cxyDvW6-25" value="Timelock Encryption" style="text;html=1;strokeColor=none;fillColor=none;align=center;verticalAlign=middle;whiteSpace=wrap;rounded=0;" vertex="1" parent="1">
          <mxGeometry x="337" y="106" width="60" height="30" as="geometry" />
        </mxCell>
        <mxCell id="3I_h-lLgdBAn1cxyDvW6-26" value="VIEW&lt;br&gt;Defi aggregator&lt;br&gt;TVL, data ..." style="text;html=1;strokeColor=none;fillColor=none;align=left;verticalAlign=middle;whiteSpace=wrap;rounded=0;" vertex="1" parent="1">
          <mxGeometry x="490" y="40" width="130" height="30" as="geometry" />
        </mxCell>
        <mxCell id="3I_h-lLgdBAn1cxyDvW6-27" value="" style="rounded=1;arcSize=10;dashed=1;fillColor=none;gradientColor=none;dashPattern=1 1;strokeWidth=2;" vertex="1" parent="1">
          <mxGeometry x="-52" y="280" width="199" height="300" as="geometry" />
        </mxCell>
        <mxCell id="3I_h-lLgdBAn1cxyDvW6-28" value="Decentralised backed" style="text;html=1;strokeColor=none;fillColor=none;align=center;verticalAlign=middle;whiteSpace=wrap;rounded=0;" vertex="1" parent="1">
          <mxGeometry x="-45" y="285" width="160" height="30" as="geometry" />
        </mxCell>
        <mxCell id="3I_h-lLgdBAn1cxyDvW6-30" value="Actor" style="shape=umlActor;verticalLabelPosition=bottom;verticalAlign=top;html=1;outlineConnect=0;" vertex="1" parent="1">
          <mxGeometry x="700" y="120" width="30" height="60" as="geometry" />
        </mxCell>
        <mxCell id="3I_h-lLgdBAn1cxyDvW6-31" value="LIT Action" style="rounded=1;whiteSpace=wrap;html=1;" vertex="1" parent="1">
          <mxGeometry x="-12.5" y="390" width="120" height="60" as="geometry" />
        </mxCell>
        <mxCell id="3I_h-lLgdBAn1cxyDvW6-32" value="LIT PKP" style="rounded=1;whiteSpace=wrap;html=1;" vertex="1" parent="1">
          <mxGeometry x="-12.5" y="320" width="120" height="60" as="geometry" />
        </mxCell>
        <mxCell id="3I_h-lLgdBAn1cxyDvW6-33" value="" style="sketch=0;pointerEvents=1;shadow=0;dashed=0;html=1;strokeColor=none;labelPosition=center;verticalLabelPosition=bottom;verticalAlign=top;outlineConnect=0;align=center;shape=mxgraph.office.security.key_permissions;fillColor=#2072B8;" vertex="1" parent="1">
          <mxGeometry x="-5" y="323.5" width="25" height="53" as="geometry" />
        </mxCell>
        <mxCell id="3I_h-lLgdBAn1cxyDvW6-35" value="" style="shape=cylinder3;whiteSpace=wrap;html=1;boundedLbl=1;backgroundOutline=1;size=15;" vertex="1" parent="1">
          <mxGeometry x="-22.5" y="460" width="142.5" height="110" as="geometry" />
        </mxCell>
        <mxCell id="3I_h-lLgdBAn1cxyDvW6-39" value="Ceramic Streams" style="text;html=1;strokeColor=none;fillColor=none;align=center;verticalAlign=middle;whiteSpace=wrap;rounded=0;" vertex="1" parent="1">
          <mxGeometry x="-5" y="460" width="105" height="30" as="geometry" />
        </mxCell>
        <mxCell id="3I_h-lLgdBAn1cxyDvW6-42" value="" style="strokeWidth=2;html=1;shape=mxgraph.flowchart.database;whiteSpace=wrap;" vertex="1" parent="1">
          <mxGeometry x="-11" y="40" width="150" height="185" as="geometry" />
        </mxCell>
        <mxCell id="3I_h-lLgdBAn1cxyDvW6-41" value="IPFS" style="text;html=1;strokeColor=none;fillColor=none;align=center;verticalAlign=middle;whiteSpace=wrap;rounded=0;" vertex="1" parent="1">
          <mxGeometry x="-16" y="55" width="160" height="30" as="geometry" />
        </mxCell>
        <mxCell id="3I_h-lLgdBAn1cxyDvW6-43" value="FRONTEND" style="text;html=1;strokeColor=none;fillColor=none;align=center;verticalAlign=middle;whiteSpace=wrap;rounded=0;" vertex="1" parent="1">
          <mxGeometry x="475" y="-35" width="160" height="30" as="geometry" />
        </mxCell>
        <mxCell id="3I_h-lLgdBAn1cxyDvW6-48" value="&lt;div style=&quot;text-align: left;&quot;&gt;&lt;span style=&quot;background-color: initial;&quot;&gt;PROPOSE&lt;/span&gt;&lt;/div&gt;&lt;div style=&quot;text-align: left;&quot;&gt;&lt;span style=&quot;background-color: initial;&quot;&gt;- New adapters&lt;/span&gt;&lt;/div&gt;&lt;div style=&quot;text-align: left;&quot;&gt;&lt;span style=&quot;background-color: initial;&quot;&gt;- New rules&lt;/span&gt;&lt;/div&gt;" style="text;html=1;strokeColor=none;fillColor=none;align=center;verticalAlign=middle;whiteSpace=wrap;rounded=0;" vertex="1" parent="1">
          <mxGeometry x="450" y="170" width="160" height="30" as="geometry" />
        </mxCell>
        <mxCell id="3I_h-lLgdBAn1cxyDvW6-49" value="&lt;div style=&quot;text-align: left;&quot;&gt;&lt;span style=&quot;background-color: initial;&quot;&gt;VOTE&lt;/span&gt;&lt;/div&gt;&lt;div style=&quot;text-align: left;&quot;&gt;&lt;span style=&quot;background-color: initial;&quot;&gt;- New adapters&lt;/span&gt;&lt;/div&gt;&lt;div style=&quot;text-align: left;&quot;&gt;&lt;span style=&quot;background-color: initial;&quot;&gt;- New rules&lt;/span&gt;&lt;/div&gt;" style="text;html=1;strokeColor=none;fillColor=none;align=center;verticalAlign=middle;whiteSpace=wrap;rounded=0;" vertex="1" parent="1">
          <mxGeometry x="450" y="105" width="160" height="30" as="geometry" />
        </mxCell>
        <mxCell id="3I_h-lLgdBAn1cxyDvW6-51" value="" style="verticalLabelPosition=bottom;verticalAlign=top;html=1;strokeWidth=2;shape=mxgraph.arrows2.arrow;dy=0.6;dx=40;notch=0;rotation=0;" vertex="1" parent="1">
          <mxGeometry x="181" y="35" width="90" height="70" as="geometry" />
        </mxCell>
        <mxCell id="3I_h-lLgdBAn1cxyDvW6-52" value="Web3 Storage" style="text;html=1;strokeColor=none;fillColor=none;align=center;verticalAlign=middle;whiteSpace=wrap;rounded=0;" vertex="1" parent="1">
          <mxGeometry x="146" y="55" width="160" height="30" as="geometry" />
        </mxCell>
        <mxCell id="3I_h-lLgdBAn1cxyDvW6-72" value="" style="group" vertex="1" connectable="0" parent="1">
          <mxGeometry x="444" y="492" width="76" height="70" as="geometry" />
        </mxCell>
        <mxCell id="3I_h-lLgdBAn1cxyDvW6-73" value="" style="whiteSpace=wrap;html=1;shape=mxgraph.basic.document" vertex="1" parent="3I_h-lLgdBAn1cxyDvW6-72">
          <mxGeometry width="76" height="70" as="geometry" />
        </mxCell>
        <mxCell id="3I_h-lLgdBAn1cxyDvW6-74" value="Lilypad" style="text;html=1;strokeColor=none;fillColor=none;align=center;verticalAlign=middle;whiteSpace=wrap;rounded=0;" vertex="1" parent="3I_h-lLgdBAn1cxyDvW6-72">
          <mxGeometry x="15.2" y="21.875" width="45.599999999999994" height="26.25" as="geometry" />
        </mxCell>
        <mxCell id="3I_h-lLgdBAn1cxyDvW6-19" value="" style="whiteSpace=wrap;html=1;shape=mxgraph.basic.document;fillColor=#fad9d5;strokeColor=#ae4132;" vertex="1" parent="1">
          <mxGeometry x="565" y="395" width="100" height="80" as="geometry" />
        </mxCell>
        <mxCell id="3I_h-lLgdBAn1cxyDvW6-20" value="Adapter Registry" style="text;html=1;strokeColor=none;fillColor=none;align=center;verticalAlign=middle;whiteSpace=wrap;rounded=0;" vertex="1" parent="1">
          <mxGeometry x="590" y="415" width="60" height="30" as="geometry" />
        </mxCell>
        <mxCell id="3I_h-lLgdBAn1cxyDvW6-16" value="" style="whiteSpace=wrap;html=1;shape=mxgraph.basic.document;fillColor=#fad9d5;strokeColor=#ae4132;" vertex="1" parent="1">
          <mxGeometry x="616" y="308.5" width="100" height="80" as="geometry" />
        </mxCell>
        <mxCell id="3I_h-lLgdBAn1cxyDvW6-17" value="Token" style="text;html=1;strokeColor=none;fillColor=none;align=center;verticalAlign=middle;whiteSpace=wrap;rounded=0;" vertex="1" parent="1">
          <mxGeometry x="632" y="335.5" width="60" height="30" as="geometry" />
        </mxCell>
        <mxCell id="3I_h-lLgdBAn1cxyDvW6-75" value="" style="group" vertex="1" connectable="0" parent="1">
          <mxGeometry x="270" y="420" width="160" height="130" as="geometry" />
        </mxCell>
        <mxCell id="3I_h-lLgdBAn1cxyDvW6-60" value="" style="sketch=0;html=1;aspect=fixed;strokeColor=none;shadow=0;fillColor=#3B8DF1;verticalAlign=top;labelPosition=center;verticalLabelPosition=bottom;shape=mxgraph.gcp2.compute_engine_2" vertex="1" parent="3I_h-lLgdBAn1cxyDvW6-75">
          <mxGeometry x="53" y="30" width="54" height="100" as="geometry" />
        </mxCell>
        <mxCell id="3I_h-lLgdBAn1cxyDvW6-61" value="BACALHAU" style="text;html=1;strokeColor=none;fillColor=none;align=center;verticalAlign=middle;whiteSpace=wrap;rounded=0;" vertex="1" parent="3I_h-lLgdBAn1cxyDvW6-75">
          <mxGeometry width="160" height="30" as="geometry" />
        </mxCell>
        <mxCell id="3I_h-lLgdBAn1cxyDvW6-77" value="" style="group" vertex="1" connectable="0" parent="1">
          <mxGeometry x="172" y="345" width="122" height="130" as="geometry" />
        </mxCell>
        <mxCell id="3I_h-lLgdBAn1cxyDvW6-76" value="" style="rounded=1;whiteSpace=wrap;html=1;" vertex="1" parent="3I_h-lLgdBAn1cxyDvW6-77">
          <mxGeometry x="2" width="120" height="130" as="geometry" />
        </mxCell>
        <mxCell id="3I_h-lLgdBAn1cxyDvW6-62" value="" style="image;sketch=0;aspect=fixed;html=1;points=[];align=center;fontSize=12;image=img/lib/mscae/Docker.svg;" vertex="1" parent="3I_h-lLgdBAn1cxyDvW6-77">
          <mxGeometry x="26" y="12" width="21.95" height="18" as="geometry" />
        </mxCell>
        <mxCell id="3I_h-lLgdBAn1cxyDvW6-63" value="Docker Image" style="text;html=1;strokeColor=none;fillColor=none;align=center;verticalAlign=middle;whiteSpace=wrap;rounded=0;" vertex="1" parent="3I_h-lLgdBAn1cxyDvW6-77">
          <mxGeometry y="27" width="114" height="23" as="geometry" />
        </mxCell>
        <mxCell id="3I_h-lLgdBAn1cxyDvW6-65" value="Timelock Decryption" style="text;html=1;strokeColor=none;fillColor=none;align=center;verticalAlign=middle;whiteSpace=wrap;rounded=0;" vertex="1" parent="3I_h-lLgdBAn1cxyDvW6-77">
          <mxGeometry x="61" y="85" width="6" height="10" as="geometry" />
        </mxCell>
        <mxCell id="3I_h-lLgdBAn1cxyDvW6-82" value="" style="verticalLabelPosition=bottom;verticalAlign=top;html=1;shape=hexagon;perimeter=hexagonPerimeter2;arcSize=6;size=0.27;fillColor=#fad7ac;strokeColor=#b46504;" vertex="1" parent="3I_h-lLgdBAn1cxyDvW6-77">
          <mxGeometry x="8" y="80" width="25.01" height="15" as="geometry" />
        </mxCell>
        <mxCell id="3I_h-lLgdBAn1cxyDvW6-78" value="Off-chain Vote resolver (AKA Oracle)" style="text;html=1;strokeColor=none;fillColor=none;align=left;verticalAlign=middle;whiteSpace=wrap;rounded=0;" vertex="1" parent="1">
          <mxGeometry x="201" y="289" width="219" height="30" as="geometry" />
        </mxCell>
        <mxCell id="3I_h-lLgdBAn1cxyDvW6-89" value="" style="group" vertex="1" connectable="0" parent="1">
          <mxGeometry x="652" y="494" width="80" height="70" as="geometry" />
        </mxCell>
        <mxCell id="3I_h-lLgdBAn1cxyDvW6-90" value="" style="whiteSpace=wrap;html=1;shape=mxgraph.basic.document" vertex="1" parent="3I_h-lLgdBAn1cxyDvW6-89">
          <mxGeometry width="80" height="70" as="geometry" />
        </mxCell>
        <mxCell id="3I_h-lLgdBAn1cxyDvW6-91" value="APE Coin" style="text;html=1;strokeColor=none;fillColor=none;align=center;verticalAlign=middle;whiteSpace=wrap;rounded=0;" vertex="1" parent="3I_h-lLgdBAn1cxyDvW6-89">
          <mxGeometry x="16" y="21.875" width="48.00000000000001" height="26.25" as="geometry" />
        </mxCell>
        <mxCell id="3I_h-lLgdBAn1cxyDvW6-92" value="&lt;ul&gt;&lt;li&gt;Javascript Adapters&lt;/li&gt;&lt;li&gt;Timelock encrypted votes&lt;/li&gt;&lt;/ul&gt;" style="text;html=1;strokeColor=none;fillColor=none;align=left;verticalAlign=middle;whiteSpace=wrap;rounded=0;" vertex="1" parent="1">
          <mxGeometry x="-26" y="135" width="173" height="30" as="geometry" />
        </mxCell>
        <mxCell id="3I_h-lLgdBAn1cxyDvW6-11" value="" style="whiteSpace=wrap;html=1;shape=mxgraph.basic.document;fillColor=#fad9d5;strokeColor=#ae4132;" vertex="1" parent="1">
          <mxGeometry x="500" y="309" width="104.54545454545455" height="80" as="geometry" />
        </mxCell>
        <mxCell id="3I_h-lLgdBAn1cxyDvW6-12" value="Governor" style="text;html=1;strokeColor=none;fillColor=none;align=center;verticalAlign=middle;whiteSpace=wrap;rounded=0;" vertex="1" parent="1">
          <mxGeometry x="520.9090909090909" y="334" width="62.72727272727273" height="30" as="geometry" />
        </mxCell>
        <mxCell id="3I_h-lLgdBAn1cxyDvW6-84" value="DefiKicks" style="text;html=1;strokeColor=none;fillColor=none;align=center;verticalAlign=middle;whiteSpace=wrap;rounded=0;" vertex="1" parent="1">
          <mxGeometry x="572.27" y="283" width="62.72727272727273" height="30" as="geometry" />
        </mxCell>
        <mxCell id="3I_h-lLgdBAn1cxyDvW6-95" value="" style="endArrow=classic;html=1;rounded=0;exitX=0.184;exitY=0.08;exitDx=0;exitDy=0;exitPerimeter=0;entryX=1;entryY=0.25;entryDx=0;entryDy=0;" edge="1" parent="1" source="3I_h-lLgdBAn1cxyDvW6-49" target="3I_h-lLgdBAn1cxyDvW6-24">
          <mxGeometry width="50" height="50" relative="1" as="geometry">
            <mxPoint x="280" y="150" as="sourcePoint" />
            <mxPoint x="330" y="100" as="targetPoint" />
          </mxGeometry>
        </mxCell>
        <mxCell id="3I_h-lLgdBAn1cxyDvW6-96" value="" style="endArrow=classic;html=1;rounded=0;exitX=0.13;exitY=0.817;exitDx=0;exitDy=0;exitPerimeter=0;" edge="1" parent="1" source="3I_h-lLgdBAn1cxyDvW6-24">
          <mxGeometry width="50" height="50" relative="1" as="geometry">
            <mxPoint x="280" y="150" as="sourcePoint" />
            <mxPoint x="280" y="175" as="targetPoint" />
            <Array as="points">
              <mxPoint x="280" y="175" />
            </Array>
          </mxGeometry>
        </mxCell>
        <mxCell id="3I_h-lLgdBAn1cxyDvW6-97" value="" style="endArrow=classic;html=1;rounded=0;exitX=0.125;exitY=0.667;exitDx=0;exitDy=0;exitPerimeter=0;entryX=0.869;entryY=0.667;entryDx=0;entryDy=0;entryPerimeter=0;" edge="1" parent="1" source="3I_h-lLgdBAn1cxyDvW6-48" target="3I_h-lLgdBAn1cxyDvW6-46">
          <mxGeometry width="50" height="50" relative="1" as="geometry">
            <mxPoint x="280" y="150" as="sourcePoint" />
            <mxPoint x="330" y="100" as="targetPoint" />
          </mxGeometry>
        </mxCell>
        <mxCell id="3I_h-lLgdBAn1cxyDvW6-98" value="" style="endArrow=classic;html=1;rounded=0;entryX=-0.024;entryY=0.328;entryDx=0;entryDy=0;entryPerimeter=0;exitX=0.837;exitY=0.5;exitDx=0;exitDy=0;exitPerimeter=0;" edge="1" parent="1" source="3I_h-lLgdBAn1cxyDvW6-52" target="3I_h-lLgdBAn1cxyDvW6-10">
          <mxGeometry width="50" height="50" relative="1" as="geometry">
            <mxPoint x="325" y="70" as="sourcePoint" />
            <mxPoint x="375" y="20" as="targetPoint" />
          </mxGeometry>
        </mxCell>
        <mxCell id="3I_h-lLgdBAn1cxyDvW6-45" value="" style="verticalLabelPosition=bottom;verticalAlign=top;html=1;strokeWidth=2;shape=mxgraph.arrows2.arrow;dy=0.6;dx=40;notch=0;rotation=-180;" vertex="1" parent="1">
          <mxGeometry x="181" y="140" width="90" height="70" as="geometry" />
        </mxCell>
        <mxCell id="3I_h-lLgdBAn1cxyDvW6-46" value="Web3 Storage" style="text;html=1;strokeColor=none;fillColor=none;align=center;verticalAlign=middle;whiteSpace=wrap;rounded=0;" vertex="1" parent="1">
          <mxGeometry x="151" y="160" width="160" height="30" as="geometry" />
        </mxCell>
        <mxCell id="3I_h-lLgdBAn1cxyDvW6-100" value="" style="endArrow=classic;html=1;rounded=0;entryX=0.4;entryY=-0.018;entryDx=0;entryDy=0;entryPerimeter=0;fillColor=#cce5ff;strokeColor=#36393d;" edge="1" parent="1" source="3I_h-lLgdBAn1cxyDvW6-42" target="3I_h-lLgdBAn1cxyDvW6-76">
          <mxGeometry width="50" height="50" relative="1" as="geometry">
            <mxPoint x="300" y="480" as="sourcePoint" />
            <mxPoint x="350" y="430" as="targetPoint" />
          </mxGeometry>
        </mxCell>
        <mxCell id="3I_h-lLgdBAn1cxyDvW6-103" value="" style="endArrow=classic;html=1;rounded=0;entryX=1;entryY=1;entryDx=0;entryDy=0;" edge="1" parent="1" target="3I_h-lLgdBAn1cxyDvW6-26">
          <mxGeometry width="50" height="50" relative="1" as="geometry">
            <mxPoint x="690" y="150" as="sourcePoint" />
            <mxPoint x="800" y="90" as="targetPoint" />
          </mxGeometry>
        </mxCell>
        <mxCell id="3I_h-lLgdBAn1cxyDvW6-104" value="" style="endArrow=classic;html=1;rounded=0;" edge="1" parent="1" target="3I_h-lLgdBAn1cxyDvW6-49">
          <mxGeometry width="50" height="50" relative="1" as="geometry">
            <mxPoint x="690" y="150" as="sourcePoint" />
            <mxPoint x="630" y="80" as="targetPoint" />
          </mxGeometry>
        </mxCell>
        <mxCell id="3I_h-lLgdBAn1cxyDvW6-105" value="" style="endArrow=classic;html=1;rounded=0;" edge="1" parent="1" target="3I_h-lLgdBAn1cxyDvW6-48">
          <mxGeometry width="50" height="50" relative="1" as="geometry">
            <mxPoint x="690" y="150" as="sourcePoint" />
            <mxPoint x="620" y="145" as="targetPoint" />
          </mxGeometry>
        </mxCell>
      </root>
    </mxGraphModel>
  </diagram>
</mxfile>
